<?xml version="1.0" ?><!DOCTYPE svg  PUBLIC '-//W3C//DTD SVG 1.1//EN'  'http://www.w3.org/Graphics/SVG/1.1/DTD/svg11.dtd'><svg enable-background="new 0 0 24 24" height="24px" id="Layer_1" version="1.1" viewBox="0 0 24 24" width="24px" xml:space="preserve" xmlns="http://www.w3.org/2000/svg" xmlns:xlink="http://www.w3.org/1999/xlink"><g><path d="M15,14.7c-0.2,0-0.3,0-0.4,0.1c0,0-0.1,0-0.1,0.1c-0.1,0-0.2,0.1-0.2,0.2c0,0-0.1,0.1-0.1,0.1c-0.1,0.1-0.1,0.2-0.2,0.2   c0,0,0,0.1-0.1,0.1c0,0.1-0.1,0.3-0.1,0.4c0,0.1,0,0.3,0.1,0.4c0,0,0,0.1,0,0.1c0,0.1,0.1,0.2,0.2,0.3c0,0,0.1,0.1,0.1,0.1   c0.2,0.2,0.5,0.3,0.8,0.3c0.6,0,1.2-0.5,1.2-1.2C16.2,15.2,15.6,14.7,15,14.7z"/><path d="M19.7,0.5H4.3c-2.1,0-3.8,1.7-3.8,3.8v15.4c0,2.1,1.7,3.8,3.8,3.8h15.4c2.1,0,3.8-1.7,3.8-3.8V4.3   C23.5,2.2,21.8,0.5,19.7,0.5z M15,18c-0.3,0-0.6-0.1-0.9-0.2C14,17.8,14,17.9,13.9,18c-0.7,0.7-1.7,1.1-2.7,1.1c-1,0-2-0.4-2.7-1.1   l-1.1-1.1c-0.3-0.3-0.5-0.7-0.5-1.2c0-0.4,0.2-0.9,0.5-1.2L8,14c0.6-0.6,1.7-0.6,2.4,0c0.4,0.4,0.6,1.1,0.4,1.6l0,0   c0.2,0.2,0.6,0.2,0.7,0c0.2-0.2,0.2-0.5,0-0.7l-2.3-2.3c0,0-0.1-0.1-0.1-0.1l-1-1C7.4,10.7,7,9.8,7,8.7c0-1,0.4-2,1.1-2.7   c1.5-1.5,4-1.5,5.5,0l1,1c0,0,0.1,0.1,0.1,0.1c0.3,0.3,0.5,0.7,0.5,1.2c0,0.4-0.2,0.9-0.5,1.2c0,0-0.1,0.1-0.1,0.1L14,10   c-0.6,0.6-1.7,0.6-2.4,0c-0.4-0.4-0.6-1.1-0.4-1.6l0,0c-0.2-0.2-0.6-0.2-0.7,0c-0.1,0.1-0.2,0.2-0.2,0.4c0,0.1,0.1,0.3,0.2,0.4   l2.3,2.3c0,0,0.1,0.1,0.1,0.1l1,1c0.3,0.3,0.6,0.7,0.8,1.2c0.1,0,0.2,0,0.3,0c1.2,0,2.1,1,2.1,2.1C17.1,17,16.2,18,15,18z"/></g></svg>